<?xml version="1.0" encoding="UTF-8"?> <svg xmlns="http://www.w3.org/2000/svg" id="icon" viewBox="0 0 1000 1000"><path d="M500,80C306.83,80,100,208.58,100,400c0,47.09,16.33,84.7,45.61,110.62,37.11,32.85,94.49,37,134.38,31.71v12.11c0,138.33-65.64,166.71-65.64,249.21,0,33.89,5.53,56.35,5.53,56.35h31.25a301,301,0,0,1-4.38-49.51c0-71.49,73.34-115.39,73.34-262.77L320,446c-14.54,2.36-32.05,9.67-40,14v45.1c-47.56,4-83.37-3.84-108.53-25C150.52,462.49,140,435.46,140,400c0-149.73,164.47-282,360-282S860,250.27,860,400c0,35.46-10.52,62.49-31.46,80.1-25.16,21.16-61,29-108.53,25V460c-8-4.33-25.46-11.64-40-14l-.09,101.72c0,147.38,73.34,191.28,73.34,262.77A301,301,0,0,1,748.87,860h31.24s5.54-22.46,5.54-56.35c0-82.5-65.64-110.88-65.64-249.21V542.32c39.89,5.26,97.27,1.15,134.38-31.7C883.67,484.7,900,447.09,900,400,900,208.58,693.17,80,500,80Z"></path><path d="M765.48,429.4c-41.46-32.59-141.22-69.61-266-69.61s-224.57,37-266,69.61v25c64.74-38.3,146.21-56.71,266-56.71s201.3,18.41,266,56.71Z"></path><path d="M400,429c-14.89,1.23-28.36,3.39-40,7V556.3c0,157.76-41.68,196.61-41.68,279.11,0,30,3,44.59,3,44.59h31.25s-2.32-14.77-2.32-37.75c0-71.49,49.75-139.83,49.75-282.32Z"></path><path d="M480,420c-19.35,0-40,2-40,2l-.24,136.76c0,200.19-17,187.19-17,269.69,0,33.87,13.29,71.55,13.29,71.55h32.56s-12.39-33.31-12.39-66.69c0-60.38,24-91.76,24-287.29Z"></path><path d="M640,436c-11.64-3.61-25.11-5.77-40-7V559.93c0,142.49,49.75,210.83,49.75,282.32,0,23-2.32,37.75-2.32,37.75h31.25s3-14.61,3-44.59c0-82.5-41.68-121.35-41.68-279.11Z"></path><path d="M560,422s-20.65-2-40-2l-.21,126c0,195.53,24,226.91,24,287.29,0,33.38-12.39,66.69-12.39,66.69h32.56s13.29-37.68,13.29-71.55c0-82.5-17-69.5-17-269.69Z"></path></svg> 